solid chip.c/Calum.c/Cc.r
  facet normal 0.382683 -0.923880 0.000000
    outer loop
      vertex -0.977745 21.070767 -0.100000
      vertex -1.770801 20.742272 8.000000
      vertex -1.770801 20.742272 -0.100000
    endloop
  endfacet
  facet normal 0.382683 -0.923880 0.000000
    outer loop
      vertex -0.977745 21.070767 -0.100000
      vertex -0.977745 21.070767 8.000000
      vertex -1.770801 20.742272 8.000000
    endloop
  endfacet
  facet normal 0.707107 -0.707107 0.000000
    outer loop
      vertex -0.370767 21.677745 -0.100000
      vertex -0.977745 21.070767 8.000000
      vertex -0.977745 21.070767 -0.100000
    endloop
  endfacet
  facet normal 0.707107 -0.707107 0.000000
    outer loop
      vertex -0.370767 21.677745 -0.100000
      vertex -0.370767 21.677745 8.000000
      vertex -0.977745 21.070767 8.000000
    endloop
  endfacet
  facet normal 0.923880 -0.382683 0.000000
    outer loop
      vertex -0.042272 22.470801 -0.100000
      vertex -0.370767 21.677745 8.000000
      vertex -0.370767 21.677745 -0.100000
    endloop
  endfacet
  facet normal 0.923880 -0.382683 0.000000
    outer loop
      vertex -0.042272 22.470801 -0.100000
      vertex -0.042272 22.470801 8.000000
      vertex -0.370767 21.677745 8.000000
    endloop
  endfacet
  facet normal 0.923880 0.382683 0.000000
    outer loop
      vertex -0.370767 24.122255 8.000000
      vertex -0.042272 23.329199 -0.100000
      vertex -0.370767 24.122255 -0.100000
    endloop
  endfacet
  facet normal 0.923880 0.382683 0.000000
    outer loop
      vertex -0.370767 24.122255 8.000000
      vertex -0.042272 23.329199 8.000000
      vertex -0.042272 23.329199 -0.100000
    endloop
  endfacet
  facet normal 0.707107 0.707107 0.000000
    outer loop
      vertex -0.977745 24.729233 8.000000
      vertex -0.370767 24.122255 -0.100000
      vertex -0.977745 24.729233 -0.100000
    endloop
  endfacet
  facet normal 0.707107 0.707107 0.000000
    outer loop
      vertex -0.977745 24.729233 8.000000
      vertex -0.370767 24.122255 8.000000
      vertex -0.370767 24.122255 -0.100000
    endloop
  endfacet
  facet normal 0.382683 0.923880 0.000000
    outer loop
      vertex -1.770801 25.057728 8.000000
      vertex -0.977745 24.729233 -0.100000
      vertex -1.770801 25.057728 -0.100000
    endloop
  endfacet
  facet normal 0.382683 0.923880 0.000000
    outer loop
      vertex -1.770801 25.057728 8.000000
      vertex -0.977745 24.729233 8.000000
      vertex -0.977745 24.729233 -0.100000
    endloop
  endfacet
  facet normal 0.000000 1.000000 0.000000
    outer loop
      vertex -2.629199 25.057728 8.000000
      vertex -1.770801 25.057728 -0.100000
      vertex -2.629199 25.057728 -0.100000
    endloop
  endfacet
  facet normal 0.000000 1.000000 0.000000
    outer loop
      vertex -2.629199 25.057728 8.000000
      vertex -1.770801 25.057728 8.000000
      vertex -1.770801 25.057728 -0.100000
    endloop
  endfacet
  facet normal -0.382683 0.923880 0.000000
    outer loop
      vertex -3.422255 24.729233 8.000000
      vertex -2.629199 25.057728 8.000000
      vertex -3.422255 24.729233 -0.100000
    endloop
  endfacet
  facet normal -0.382683 0.923880 0.000000
    outer loop
      vertex -2.629199 25.057728 8.000000
      vertex -2.629199 25.057728 -0.100000
      vertex -3.422255 24.729233 -0.100000
    endloop
  endfacet
  facet normal -0.707107 0.707107 0.000000
    outer loop
      vertex -4.029233 24.122255 8.000000
      vertex -3.422255 24.729233 8.000000
      vertex -4.029233 24.122255 -0.100000
    endloop
  endfacet
  facet normal -0.707107 0.707107 0.000000
    outer loop
      vertex -3.422255 24.729233 8.000000
      vertex -3.422255 24.729233 -0.100000
      vertex -4.029233 24.122255 -0.100000
    endloop
  endfacet
  facet normal -0.923880 0.382683 0.000000
    outer loop
      vertex -4.357728 23.329199 8.000000
      vertex -4.029233 24.122255 8.000000
      vertex -4.357728 23.329199 -0.100000
    endloop
  endfacet
  facet normal -0.923880 0.382683 0.000000
    outer loop
      vertex -4.029233 24.122255 8.000000
      vertex -4.029233 24.122255 -0.100000
      vertex -4.357728 23.329199 -0.100000
    endloop
  endfacet
  facet normal -0.923880 -0.382683 0.000000
    outer loop
      vertex -4.357728 22.470801 -0.100000
      vertex -4.029233 21.677745 8.000000
      vertex -4.357728 22.470801 8.000000
    endloop
  endfacet
  facet normal -0.923880 -0.382683 0.000000
    outer loop
      vertex -4.357728 22.470801 -0.100000
      vertex -4.029233 21.677745 -0.100000
      vertex -4.029233 21.677745 8.000000
    endloop
  endfacet
  facet normal -0.707107 -0.707107 0.000000
    outer loop
      vertex -4.029233 21.677745 -0.100000
      vertex -3.422255 21.070767 8.000000
      vertex -4.029233 21.677745 8.000000
    endloop
  endfacet
  facet normal -0.707107 -0.707107 0.000000
    outer loop
      vertex -4.029233 21.677745 -0.100000
      vertex -3.422255 21.070767 -0.100000
      vertex -3.422255 21.070767 8.000000
    endloop
  endfacet
  facet normal -0.382683 -0.923880 0.000000
    outer loop
      vertex -3.422255 21.070767 -0.100000
      vertex -2.629199 20.742272 8.000000
      vertex -3.422255 21.070767 8.000000
    endloop
  endfacet
  facet normal -0.382683 -0.923880 0.000000
    outer loop
      vertex -3.422255 21.070767 -0.100000
      vertex -2.629199 20.742272 -0.100000
      vertex -2.629199 20.742272 8.000000
    endloop
  endfacet
  facet normal 0.000000 -1.000000 0.000000
    outer loop
      vertex -2.629199 20.742272 -0.100000
      vertex -1.770801 20.742272 8.000000
      vertex -2.629199 20.742272 8.000000
    endloop
  endfacet
  facet normal 0.000000 -1.000000 0.000000
    outer loop
      vertex -2.629199 20.742272 -0.100000
      vertex -1.770801 20.742272 -0.100000
      vertex -1.770801 20.742272 8.000000
    endloop
  endfacet
  facet normal -0.000000 -1.000000 0.000000
    outer loop
      vertex -2.629199 -0.057728 -0.100000
      vertex -1.770801 -0.057728 8.000000
      vertex -2.629199 -0.057728 8.000000
    endloop
  endfacet
  facet normal -0.000000 -1.000000 0.000000
    outer loop
      vertex -2.629199 -0.057728 -0.100000
      vertex -1.770801 -0.057728 -0.100000
      vertex -1.770801 -0.057728 8.000000
    endloop
  endfacet
  facet normal -0.382683 -0.923880 0.000000
    outer loop
      vertex -3.422255 0.270767 -0.100000
      vertex -2.629199 -0.057728 8.000000
      vertex -3.422255 0.270767 8.000000
    endloop
  endfacet
  facet normal -0.382683 -0.923880 0.000000
    outer loop
      vertex -3.422255 0.270767 -0.100000
      vertex -2.629199 -0.057728 -0.100000
      vertex -2.629199 -0.057728 8.000000
    endloop
  endfacet
  facet normal -0.707107 -0.707107 0.000000
    outer loop
      vertex -4.029233 0.877745 -0.100000
      vertex -3.422255 0.270767 8.000000
      vertex -4.029233 0.877745 8.000000
    endloop
  endfacet
  facet normal -0.707107 -0.707107 0.000000
    outer loop
      vertex -4.029233 0.877745 -0.100000
      vertex -3.422255 0.270767 -0.100000
      vertex -3.422255 0.270767 8.000000
    endloop
  endfacet
  facet normal -0.923880 -0.382683 0.000000
    outer loop
      vertex -4.357728 1.670801 -0.100000
      vertex -4.029233 0.877745 8.000000
      vertex -4.357728 1.670801 8.000000
    endloop
  endfacet
  facet normal -0.923880 -0.382683 0.000000
    outer loop
      vertex -4.357728 1.670801 -0.100000
      vertex -4.029233 0.877745 -0.100000
      vertex -4.029233 0.877745 8.000000
    endloop
  endfacet
  facet normal -1.000000 0.000000 0.000000
    outer loop
      vertex -4.357728 1.670801 -0.100000
      vertex -4.357728 2.529199 8.000000
      vertex -4.357728 2.529199 -0.100000
    endloop
  endfacet
  facet normal -1.000000 0.000000 0.000000
    outer loop
      vertex -4.357728 22.470801 -0.100000
      vertex -4.357728 23.329199 8.000000
      vertex -4.357728 23.329199 -0.100000
    endloop
  endfacet
  facet normal -1.000000 0.000000 0.000000
    outer loop
      vertex -4.357728 22.470801 -0.100000
      vertex -4.357728 22.470801 8.000000
      vertex -4.357728 23.329199 8.000000
    endloop
  endfacet
  facet normal -1.000000 0.000000 0.000000
    outer loop
      vertex -4.357728 1.670801 -0.100000
      vertex -4.357728 1.670801 8.000000
      vertex -4.357728 2.529199 8.000000
    endloop
  endfacet
  facet normal -0.923880 0.382683 0.000000
    outer loop
      vertex -4.357728 2.529199 8.000000
      vertex -4.029233 3.322255 8.000000
      vertex -4.357728 2.529199 -0.100000
    endloop
  endfacet
  facet normal -0.923880 0.382683 0.000000
    outer loop
      vertex -4.029233 3.322255 8.000000
      vertex -4.029233 3.322255 -0.100000
      vertex -4.357728 2.529199 -0.100000
    endloop
  endfacet
  facet normal -0.707107 0.707107 0.000000
    outer loop
      vertex -4.029233 3.322255 8.000000
      vertex -3.422255 3.929233 8.000000
      vertex -4.029233 3.322255 -0.100000
    endloop
  endfacet
  facet normal -0.707107 0.707107 0.000000
    outer loop
      vertex -3.422255 3.929233 8.000000
      vertex -3.422255 3.929233 -0.100000
      vertex -4.029233 3.322255 -0.100000
    endloop
  endfacet
  facet normal -0.382683 0.923880 0.000000
    outer loop
      vertex -3.422255 3.929233 8.000000
      vertex -2.629199 4.257728 8.000000
      vertex -3.422255 3.929233 -0.100000
    endloop
  endfacet
  facet normal -0.382683 0.923880 0.000000
    outer loop
      vertex -2.629199 4.257728 8.000000
      vertex -2.629199 4.257728 -0.100000
      vertex -3.422255 3.929233 -0.100000
    endloop
  endfacet
  facet normal 0.000000 1.000000 0.000000
    outer loop
      vertex -2.629199 4.257728 8.000000
      vertex -1.770801 4.257728 -0.100000
      vertex -2.629199 4.257728 -0.100000
    endloop
  endfacet
  facet normal 0.000000 1.000000 0.000000
    outer loop
      vertex -2.629199 4.257728 8.000000
      vertex -1.770801 4.257728 8.000000
      vertex -1.770801 4.257728 -0.100000
    endloop
  endfacet
  facet normal 0.382683 0.923880 0.000000
    outer loop
      vertex -1.770801 4.257728 8.000000
      vertex -0.977745 3.929233 -0.100000
      vertex -1.770801 4.257728 -0.100000
    endloop
  endfacet
  facet normal 0.382683 0.923880 0.000000
    outer loop
      vertex -1.770801 4.257728 8.000000
      vertex -0.977745 3.929233 8.000000
      vertex -0.977745 3.929233 -0.100000
    endloop
  endfacet
  facet normal 0.707107 0.707107 0.000000
    outer loop
      vertex -0.977745 3.929233 8.000000
      vertex -0.370767 3.322255 -0.100000
      vertex -0.977745 3.929233 -0.100000
    endloop
  endfacet
  facet normal 0.707107 0.707107 0.000000
    outer loop
      vertex -0.977745 3.929233 8.000000
      vertex -0.370767 3.322255 8.000000
      vertex -0.370767 3.322255 -0.100000
    endloop
  endfacet
  facet normal 0.923880 0.382683 0.000000
    outer loop
      vertex -0.370767 3.322255 8.000000
      vertex -0.042272 2.529199 -0.100000
      vertex -0.370767 3.322255 -0.100000
    endloop
  endfacet
  facet normal 0.923880 0.382683 0.000000
    outer loop
      vertex -0.370767 3.322255 8.000000
      vertex -0.042272 2.529199 8.000000
      vertex -0.042272 2.529199 -0.100000
    endloop
  endfacet
  facet normal 1.000000 0.000000 0.000000
    outer loop
      vertex -0.042272 2.529199 8.000000
      vertex -0.042272 1.670801 8.000000
      vertex -0.042272 2.529199 -0.100000
    endloop
  endfacet
  facet normal 1.000000 0.000000 0.000000
    outer loop
      vertex -0.042272 23.329199 8.000000
      vertex -0.042272 22.470801 8.000000
      vertex -0.042272 23.329199 -0.100000
    endloop
  endfacet
  facet normal 1.000000 0.000000 0.000000
    outer loop
      vertex -0.042272 22.470801 8.000000
      vertex -0.042272 22.470801 -0.100000
      vertex -0.042272 23.329199 -0.100000
    endloop
  endfacet
  facet normal 1.000000 0.000000 0.000000
    outer loop
      vertex -0.042272 1.670801 8.000000
      vertex -0.042272 1.670801 -0.100000
      vertex -0.042272 2.529199 -0.100000
    endloop
  endfacet
  facet normal 0.923880 -0.382683 0.000000
    outer loop
      vertex -0.042272 1.670801 -0.100000
      vertex -0.370767 0.877745 8.000000
      vertex -0.370767 0.877745 -0.100000
    endloop
  endfacet
  facet normal 0.923880 -0.382683 0.000000
    outer loop
      vertex -0.042272 1.670801 -0.100000
      vertex -0.042272 1.670801 8.000000
      vertex -0.370767 0.877745 8.000000
    endloop
  endfacet
  facet normal 0.707107 -0.707107 0.000000
    outer loop
      vertex -0.370767 0.877745 -0.100000
      vertex -0.977745 0.270767 8.000000
      vertex -0.977745 0.270767 -0.100000
    endloop
  endfacet
  facet normal 0.707107 -0.707107 0.000000
    outer loop
      vertex -0.370767 0.877745 -0.100000
      vertex -0.370767 0.877745 8.000000
      vertex -0.977745 0.270767 8.000000
    endloop
  endfacet
  facet normal 0.382683 -0.923880 0.000000
    outer loop
      vertex -0.977745 0.270767 -0.100000
      vertex -1.770801 -0.057728 8.000000
      vertex -1.770801 -0.057728 -0.100000
    endloop
  endfacet
  facet normal 0.382683 -0.923880 0.000000
    outer loop
      vertex -0.977745 0.270767 -0.100000
      vertex -0.977745 0.270767 8.000000
      vertex -1.770801 -0.057728 8.000000
    endloop
  endfacet
  facet normal 0.000000 0.000000 1.000000
    outer loop
      vertex -3.422255 3.929233 8.000000
      vertex -1.770801 4.257728 8.000000
      vertex -2.629199 4.257728 8.000000
    endloop
  endfacet
  facet normal 0.000000 0.000000 1.000000
    outer loop
      vertex -3.422255 24.729233 8.000000
      vertex -1.770801 25.057728 8.000000
      vertex -2.629199 25.057728 8.000000
    endloop
  endfacet
  facet normal 0.000000 0.000000 1.000000
    outer loop
      vertex -4.029233 24.122255 8.000000
      vertex -0.977745 24.729233 8.000000
      vertex -3.422255 24.729233 8.000000
    endloop
  endfacet
  facet normal 0.000000 0.000000 1.000000
    outer loop
      vertex -0.977745 24.729233 8.000000
      vertex -1.770801 25.057728 8.000000
      vertex -3.422255 24.729233 8.000000
    endloop
  endfacet
  facet normal 0.000000 0.000000 1.000000
    outer loop
      vertex -4.357728 23.329199 8.000000
      vertex -0.370767 24.122255 8.000000
      vertex -4.029233 24.122255 8.000000
    endloop
  endfacet
  facet normal 0.000000 0.000000 1.000000
    outer loop
      vertex -0.370767 24.122255 8.000000
      vertex -0.977745 24.729233 8.000000
      vertex -4.029233 24.122255 8.000000
    endloop
  endfacet
  facet normal 0.000000 0.000000 1.000000
    outer loop
      vertex -4.357728 22.470801 8.000000
      vertex -0.042272 23.329199 8.000000
      vertex -4.357728 23.329199 8.000000
    endloop
  endfacet
  facet normal 0.000000 0.000000 1.000000
    outer loop
      vertex -0.042272 23.329199 8.000000
      vertex -0.370767 24.122255 8.000000
      vertex -4.357728 23.329199 8.000000
    endloop
  endfacet
  facet normal 0.000000 0.000000 1.000000
    outer loop
      vertex -4.029233 21.677745 8.000000
      vertex -0.042272 22.470801 8.000000
      vertex -4.357728 22.470801 8.000000
    endloop
  endfacet
  facet normal 0.000000 0.000000 1.000000
    outer loop
      vertex -0.042272 22.470801 8.000000
      vertex -0.042272 23.329199 8.000000
      vertex -4.357728 22.470801 8.000000
    endloop
  endfacet
  facet normal 0.000000 0.000000 1.000000
    outer loop
      vertex -3.422255 21.070767 8.000000
      vertex -0.370767 21.677745 8.000000
      vertex -4.029233 21.677745 8.000000
    endloop
  endfacet
  facet normal 0.000000 0.000000 1.000000
    outer loop
      vertex -0.370767 21.677745 8.000000
      vertex -0.042272 22.470801 8.000000
      vertex -4.029233 21.677745 8.000000
    endloop
  endfacet
  facet normal 0.000000 0.000000 1.000000
    outer loop
      vertex -2.629199 20.742272 8.000000
      vertex -0.977745 21.070767 8.000000
      vertex -3.422255 21.070767 8.000000
    endloop
  endfacet
  facet normal 0.000000 0.000000 1.000000
    outer loop
      vertex -0.977745 21.070767 8.000000
      vertex -0.370767 21.677745 8.000000
      vertex -3.422255 21.070767 8.000000
    endloop
  endfacet
  facet normal 0.000000 0.000000 1.000000
    outer loop
      vertex -2.629199 20.742272 8.000000
      vertex -1.770801 20.742272 8.000000
      vertex -0.977745 21.070767 8.000000
    endloop
  endfacet
  facet normal 0.000000 0.000000 1.000000
    outer loop
      vertex -4.029233 3.322255 8.000000
      vertex -0.977745 3.929233 8.000000
      vertex -3.422255 3.929233 8.000000
    endloop
  endfacet
  facet normal 0.000000 0.000000 1.000000
    outer loop
      vertex -0.977745 3.929233 8.000000
      vertex -1.770801 4.257728 8.000000
      vertex -3.422255 3.929233 8.000000
    endloop
  endfacet
  facet normal 0.000000 0.000000 1.000000
    outer loop
      vertex -4.357728 2.529199 8.000000
      vertex -0.370767 3.322255 8.000000
      vertex -4.029233 3.322255 8.000000
    endloop
  endfacet
  facet normal 0.000000 0.000000 1.000000
    outer loop
      vertex -0.370767 3.322255 8.000000
      vertex -0.977745 3.929233 8.000000
      vertex -4.029233 3.322255 8.000000
    endloop
  endfacet
  facet normal 0.000000 0.000000 1.000000
    outer loop
      vertex -4.357728 1.670801 8.000000
      vertex -0.042272 2.529199 8.000000
      vertex -4.357728 2.529199 8.000000
    endloop
  endfacet
  facet normal 0.000000 0.000000 1.000000
    outer loop
      vertex -0.042272 2.529199 8.000000
      vertex -0.370767 3.322255 8.000000
      vertex -4.357728 2.529199 8.000000
    endloop
  endfacet
  facet normal 0.000000 0.000000 1.000000
    outer loop
      vertex -4.029233 0.877745 8.000000
      vertex -0.042272 1.670801 8.000000
      vertex -4.357728 1.670801 8.000000
    endloop
  endfacet
  facet normal 0.000000 0.000000 1.000000
    outer loop
      vertex -0.042272 1.670801 8.000000
      vertex -0.042272 2.529199 8.000000
      vertex -4.357728 1.670801 8.000000
    endloop
  endfacet
  facet normal 0.000000 0.000000 1.000000
    outer loop
      vertex -3.422255 0.270767 8.000000
      vertex -0.370767 0.877745 8.000000
      vertex -4.029233 0.877745 8.000000
    endloop
  endfacet
  facet normal 0.000000 0.000000 1.000000
    outer loop
      vertex -0.370767 0.877745 8.000000
      vertex -0.042272 1.670801 8.000000
      vertex -4.029233 0.877745 8.000000
    endloop
  endfacet
  facet normal 0.000000 0.000000 1.000000
    outer loop
      vertex -2.629199 -0.057728 8.000000
      vertex -0.977745 0.270767 8.000000
      vertex -3.422255 0.270767 8.000000
    endloop
  endfacet
  facet normal 0.000000 0.000000 1.000000
    outer loop
      vertex -0.977745 0.270767 8.000000
      vertex -0.370767 0.877745 8.000000
      vertex -3.422255 0.270767 8.000000
    endloop
  endfacet
  facet normal 0.000000 0.000000 1.000000
    outer loop
      vertex -2.629199 -0.057728 8.000000
      vertex -1.770801 -0.057728 8.000000
      vertex -0.977745 0.270767 8.000000
    endloop
  endfacet
  facet normal -0.000000 0.000000 -1.000000
    outer loop
      vertex -2.629199 -0.057728 -0.100000
      vertex -3.422255 0.270767 -0.100000
      vertex -1.770801 -0.057728 -0.100000
    endloop
  endfacet
  facet normal -0.000000 0.000000 -1.000000
    outer loop
      vertex -2.629199 20.742272 -0.100000
      vertex -3.422255 21.070767 -0.100000
      vertex -1.770801 20.742272 -0.100000
    endloop
  endfacet
  facet normal -0.000000 0.000000 -1.000000
    outer loop
      vertex -4.029233 0.877745 -0.100000
      vertex -0.977745 0.270767 -0.100000
      vertex -3.422255 0.270767 -0.100000
    endloop
  endfacet
  facet normal -0.000000 0.000000 -1.000000
    outer loop
      vertex -0.977745 0.270767 -0.100000
      vertex -1.770801 -0.057728 -0.100000
      vertex -3.422255 0.270767 -0.100000
    endloop
  endfacet
  facet normal -0.000000 0.000000 -1.000000
    outer loop
      vertex -4.357728 1.670801 -0.100000
      vertex -0.370767 0.877745 -0.100000
      vertex -4.029233 0.877745 -0.100000
    endloop
  endfacet
  facet normal -0.000000 0.000000 -1.000000
    outer loop
      vertex -0.370767 0.877745 -0.100000
      vertex -0.977745 0.270767 -0.100000
      vertex -4.029233 0.877745 -0.100000
    endloop
  endfacet
  facet normal -0.000000 0.000000 -1.000000
    outer loop
      vertex -4.357728 2.529199 -0.100000
      vertex -0.042272 1.670801 -0.100000
      vertex -4.357728 1.670801 -0.100000
    endloop
  endfacet
  facet normal -0.000000 0.000000 -1.000000
    outer loop
      vertex -0.042272 1.670801 -0.100000
      vertex -0.370767 0.877745 -0.100000
      vertex -4.357728 1.670801 -0.100000
    endloop
  endfacet
  facet normal -0.000000 0.000000 -1.000000
    outer loop
      vertex -4.029233 3.322255 -0.100000
      vertex -0.042272 2.529199 -0.100000
      vertex -4.357728 2.529199 -0.100000
    endloop
  endfacet
  facet normal -0.000000 0.000000 -1.000000
    outer loop
      vertex -0.042272 2.529199 -0.100000
      vertex -0.042272 1.670801 -0.100000
      vertex -4.357728 2.529199 -0.100000
    endloop
  endfacet
  facet normal -0.000000 0.000000 -1.000000
    outer loop
      vertex -3.422255 3.929233 -0.100000
      vertex -0.370767 3.322255 -0.100000
      vertex -4.029233 3.322255 -0.100000
    endloop
  endfacet
  facet normal -0.000000 0.000000 -1.000000
    outer loop
      vertex -0.370767 3.322255 -0.100000
      vertex -0.042272 2.529199 -0.100000
      vertex -4.029233 3.322255 -0.100000
    endloop
  endfacet
  facet normal -0.000000 0.000000 -1.000000
    outer loop
      vertex -2.629199 4.257728 -0.100000
      vertex -0.977745 3.929233 -0.100000
      vertex -3.422255 3.929233 -0.100000
    endloop
  endfacet
  facet normal -0.000000 0.000000 -1.000000
    outer loop
      vertex -0.977745 3.929233 -0.100000
      vertex -0.370767 3.322255 -0.100000
      vertex -3.422255 3.929233 -0.100000
    endloop
  endfacet
  facet normal -0.000000 0.000000 -1.000000
    outer loop
      vertex -2.629199 4.257728 -0.100000
      vertex -1.770801 4.257728 -0.100000
      vertex -0.977745 3.929233 -0.100000
    endloop
  endfacet
  facet normal -0.000000 0.000000 -1.000000
    outer loop
      vertex -4.029233 21.677745 -0.100000
      vertex -0.977745 21.070767 -0.100000
      vertex -3.422255 21.070767 -0.100000
    endloop
  endfacet
  facet normal -0.000000 0.000000 -1.000000
    outer loop
      vertex -0.977745 21.070767 -0.100000
      vertex -1.770801 20.742272 -0.100000
      vertex -3.422255 21.070767 -0.100000
    endloop
  endfacet
  facet normal -0.000000 0.000000 -1.000000
    outer loop
      vertex -4.357728 22.470801 -0.100000
      vertex -0.370767 21.677745 -0.100000
      vertex -4.029233 21.677745 -0.100000
    endloop
  endfacet
  facet normal -0.000000 0.000000 -1.000000
    outer loop
      vertex -0.370767 21.677745 -0.100000
      vertex -0.977745 21.070767 -0.100000
      vertex -4.029233 21.677745 -0.100000
    endloop
  endfacet
  facet normal -0.000000 0.000000 -1.000000
    outer loop
      vertex -4.357728 23.329199 -0.100000
      vertex -0.042272 22.470801 -0.100000
      vertex -4.357728 22.470801 -0.100000
    endloop
  endfacet
  facet normal -0.000000 0.000000 -1.000000
    outer loop
      vertex -0.042272 22.470801 -0.100000
      vertex -0.370767 21.677745 -0.100000
      vertex -4.357728 22.470801 -0.100000
    endloop
  endfacet
  facet normal -0.000000 0.000000 -1.000000
    outer loop
      vertex -4.029233 24.122255 -0.100000
      vertex -0.042272 23.329199 -0.100000
      vertex -4.357728 23.329199 -0.100000
    endloop
  endfacet
  facet normal -0.000000 0.000000 -1.000000
    outer loop
      vertex -0.042272 23.329199 -0.100000
      vertex -0.042272 22.470801 -0.100000
      vertex -4.357728 23.329199 -0.100000
    endloop
  endfacet
  facet normal -0.000000 0.000000 -1.000000
    outer loop
      vertex -3.422255 24.729233 -0.100000
      vertex -0.370767 24.122255 -0.100000
      vertex -4.029233 24.122255 -0.100000
    endloop
  endfacet
  facet normal -0.000000 0.000000 -1.000000
    outer loop
      vertex -0.370767 24.122255 -0.100000
      vertex -0.042272 23.329199 -0.100000
      vertex -4.029233 24.122255 -0.100000
    endloop
  endfacet
  facet normal -0.000000 0.000000 -1.000000
    outer loop
      vertex -2.629199 25.057728 -0.100000
      vertex -0.977745 24.729233 -0.100000
      vertex -3.422255 24.729233 -0.100000
    endloop
  endfacet
  facet normal -0.000000 0.000000 -1.000000
    outer loop
      vertex -0.977745 24.729233 -0.100000
      vertex -0.370767 24.122255 -0.100000
      vertex -3.422255 24.729233 -0.100000
    endloop
  endfacet
  facet normal -0.000000 0.000000 -1.000000
    outer loop
      vertex -2.629199 25.057728 -0.100000
      vertex -1.770801 25.057728 -0.100000
      vertex -0.977745 24.729233 -0.100000
    endloop
  endfacet
endsolid chip.c/Calum.c/Cc.r
solid chip.c/Calum.c/Cb.r
  facet normal -0.000000 1.000000 -0.000000
    outer loop
      vertex -2.200000 22.900000 8.000000
      vertex 0.000000 22.900000 -0.100000
      vertex -2.200000 22.900000 -0.100000
    endloop
  endfacet
  facet normal -0.000000 1.000000 -0.000000
    outer loop
      vertex -2.200000 22.900000 8.000000
      vertex 0.000000 22.900000 8.000000
      vertex 0.000000 22.900000 -0.100000
    endloop
  endfacet
  facet normal -0.000000 -1.000000 -0.000000
    outer loop
      vertex -2.200000 2.100000 -0.100000
      vertex 0.000000 2.100000 8.000000
      vertex -2.200000 2.100000 8.000000
    endloop
  endfacet
  facet normal -0.000000 -1.000000 -0.000000
    outer loop
      vertex -2.200000 2.100000 -0.100000
      vertex 0.000000 2.100000 -0.100000
      vertex 0.000000 2.100000 8.000000
    endloop
  endfacet
  facet normal 1.000000 0.000000 -0.000000
    outer loop
      vertex 0.000000 22.900000 8.000000
      vertex 0.000000 2.100000 8.000000
      vertex 0.000000 22.900000 -0.100000
    endloop
  endfacet
  facet normal 1.000000 0.000000 -0.000000
    outer loop
      vertex 0.000000 2.100000 8.000000
      vertex 0.000000 2.100000 -0.100000
      vertex 0.000000 22.900000 -0.100000
    endloop
  endfacet
  facet normal -0.000000 -0.000000 1.000000
    outer loop
      vertex -8.000000 -0.100000 8.000000
      vertex -2.200000 25.100000 8.000000
      vertex -8.000000 25.100000 8.000000
    endloop
  endfacet
  facet normal -0.000000 -0.000000 1.000000
    outer loop
      vertex -2.200000 2.100000 8.000000
      vertex 0.000000 2.100000 8.000000
      vertex 0.000000 22.900000 8.000000
    endloop
  endfacet
  facet normal -0.000000 -0.000000 1.000000
    outer loop
      vertex -8.000000 -0.100000 8.000000
      vertex -2.200000 -0.100000 8.000000
      vertex -2.200000 2.100000 8.000000
    endloop
  endfacet
  facet normal -0.000000 -0.000000 1.000000
    outer loop
      vertex -8.000000 -0.100000 8.000000
      vertex -2.200000 2.100000 8.000000
      vertex 0.000000 22.900000 8.000000
    endloop
  endfacet
  facet normal -0.000000 -0.000000 1.000000
    outer loop
      vertex -8.000000 -0.100000 8.000000
      vertex 0.000000 22.900000 8.000000
      vertex -2.200000 22.900000 8.000000
    endloop
  endfacet
  facet normal -0.000000 -0.000000 1.000000
    outer loop
      vertex -8.000000 -0.100000 8.000000
      vertex -2.200000 22.900000 8.000000
      vertex -2.200000 25.100000 8.000000
    endloop
  endfacet
  facet normal -0.000000 -0.000000 -1.000000
    outer loop
      vertex -2.200000 25.100000 -0.100000
      vertex -2.200000 22.900000 -0.100000
      vertex -8.000000 25.100000 -0.100000
    endloop
  endfacet
  facet normal -0.000000 -0.000000 -1.000000
    outer loop
      vertex 0.000000 2.100000 -0.100000
      vertex -2.200000 22.900000 -0.100000
      vertex 0.000000 22.900000 -0.100000
    endloop
  endfacet
  facet normal -0.000000 -0.000000 -1.000000
    outer loop
      vertex -8.000000 25.100000 -0.100000
      vertex -2.200000 -0.100000 -0.100000
      vertex -8.000000 -0.100000 -0.100000
    endloop
  endfacet
  facet normal -0.000000 -0.000000 -1.000000
    outer loop
      vertex -8.000000 25.100000 -0.100000
      vertex -2.200000 22.900000 -0.100000
      vertex 0.000000 2.100000 -0.100000
    endloop
  endfacet
  facet normal -0.000000 -0.000000 -1.000000
    outer loop
      vertex -8.000000 25.100000 -0.100000
      vertex 0.000000 2.100000 -0.100000
      vertex -2.200000 2.100000 -0.100000
    endloop
  endfacet
  facet normal -0.000000 -0.000000 -1.000000
    outer loop
      vertex -8.000000 25.100000 -0.100000
      vertex -2.200000 2.100000 -0.100000
      vertex -2.200000 -0.100000 -0.100000
    endloop
  endfacet
  facet normal 1.000000 0.000000 0.000000
    outer loop
      vertex -2.200000 2.100000 8.000000
      vertex -2.200000 -0.100000 8.000000
      vertex -2.200000 2.100000 -0.100000
    endloop
  endfacet
  facet normal 1.000000 0.000000 0.000000
    outer loop
      vertex -2.200000 22.900000 8.000000
      vertex -2.200000 25.100000 -0.100000
      vertex -2.200000 25.100000 8.000000
    endloop
  endfacet
  facet normal 1.000000 0.000000 0.000000
    outer loop
      vertex -2.200000 22.900000 8.000000
      vertex -2.200000 22.900000 -0.100000
      vertex -2.200000 25.100000 -0.100000
    endloop
  endfacet
  facet normal 1.000000 0.000000 0.000000
    outer loop
      vertex -2.200000 -0.100000 8.000000
      vertex -2.200000 -0.100000 -0.100000
      vertex -2.200000 2.100000 -0.100000
    endloop
  endfacet
  facet normal -1.000000 -0.000000 -0.000000
    outer loop
      vertex -8.000000 -0.100000 -0.100000
      vertex -8.000000 25.100000 8.000000
      vertex -8.000000 25.100000 -0.100000
    endloop
  endfacet
  facet normal -1.000000 -0.000000 -0.000000
    outer loop
      vertex -8.000000 -0.100000 -0.100000
      vertex -8.000000 -0.100000 8.000000
      vertex -8.000000 25.100000 8.000000
    endloop
  endfacet
  facet normal -0.000000 -1.000000 -0.000000
    outer loop
      vertex -8.000000 -0.100000 -0.100000
      vertex -2.200000 -0.100000 8.000000
      vertex -8.000000 -0.100000 8.000000
    endloop
  endfacet
  facet normal -0.000000 -1.000000 -0.000000
    outer loop
      vertex -8.000000 -0.100000 -0.100000
      vertex -2.200000 -0.100000 -0.100000
      vertex -2.200000 -0.100000 8.000000
    endloop
  endfacet
  facet normal -0.000000 1.000000 -0.000000
    outer loop
      vertex -8.000000 25.100000 8.000000
      vertex -2.200000 25.100000 -0.100000
      vertex -8.000000 25.100000 -0.100000
    endloop
  endfacet
  facet normal -0.000000 1.000000 -0.000000
    outer loop
      vertex -8.000000 25.100000 8.000000
      vertex -2.200000 25.100000 8.000000
      vertex -2.200000 25.100000 -0.100000
    endloop
  endfacet
endsolid chip.c/Calum.c/Cb.r
solid chip.c/Cmetal.c/Cs.r
  facet normal 0.000000 0.309017 0.951057
    outer loop
      vertex -10.000000 3.725774 4.705718
      vertex -10.000000 2.922373 4.966759
      vertex -8.000000 3.725774 4.705718
    endloop
  endfacet
  facet normal 0.000000 0.309017 0.951057
    outer loop
      vertex -10.000000 2.922373 4.966759
      vertex -8.000000 2.922373 4.966759
      vertex -8.000000 3.725774 4.705718
    endloop
  endfacet
  facet normal 0.000000 0.587785 0.809017
    outer loop
      vertex -10.000000 4.409188 4.209188
      vertex -10.000000 3.725774 4.705718
      vertex -8.000000 4.409188 4.209188
    endloop
  endfacet
  facet normal 0.000000 0.587785 0.809017
    outer loop
      vertex -10.000000 3.725774 4.705718
      vertex -8.000000 3.725774 4.705718
      vertex -8.000000 4.409188 4.209188
    endloop
  endfacet
  facet normal 0.000000 0.809017 0.587785
    outer loop
      vertex -10.000000 4.905718 3.525774
      vertex -10.000000 4.409188 4.209188
      vertex -8.000000 4.905718 3.525774
    endloop
  endfacet
  facet normal 0.000000 0.809017 0.587785
    outer loop
      vertex -10.000000 4.409188 4.209188
      vertex -8.000000 4.409188 4.209188
      vertex -8.000000 4.905718 3.525774
    endloop
  endfacet
  facet normal 0.000000 0.951057 0.309017
    outer loop
      vertex -10.000000 5.166759 2.722373
      vertex -10.000000 4.905718 3.525774
      vertex -8.000000 5.166759 2.722373
    endloop
  endfacet
  facet normal 0.000000 0.951057 0.309017
    outer loop
      vertex -10.000000 4.905718 3.525774
      vertex -8.000000 4.905718 3.525774
      vertex -8.000000 5.166759 2.722373
    endloop
  endfacet
  facet normal 0.000000 1.000000 0.000000
    outer loop
      vertex -10.000000 5.166759 1.877627
      vertex -10.000000 5.166759 2.722373
      vertex -8.000000 5.166759 1.877627
    endloop
  endfacet
  facet normal 0.000000 1.000000 0.000000
    outer loop
      vertex -10.000000 5.166759 2.722373
      vertex -8.000000 5.166759 2.722373
      vertex -8.000000 5.166759 1.877627
    endloop
  endfacet
  facet normal 0.000000 0.951057 -0.309017
    outer loop
      vertex -10.000000 4.905718 1.074226
      vertex -10.000000 5.166759 1.877627
      vertex -8.000000 4.905718 1.074226
    endloop
  endfacet
  facet normal 0.000000 0.951057 -0.309017
    outer loop
      vertex -10.000000 5.166759 1.877627
      vertex -8.000000 5.166759 1.877627
      vertex -8.000000 4.905718 1.074226
    endloop
  endfacet
  facet normal 0.000000 0.809017 -0.587785
    outer loop
      vertex -10.000000 4.409188 0.390812
      vertex -10.000000 4.905718 1.074226
      vertex -8.000000 4.409188 0.390812
    endloop
  endfacet
  facet normal 0.000000 0.809017 -0.587785
    outer loop
      vertex -10.000000 4.905718 1.074226
      vertex -8.000000 4.905718 1.074226
      vertex -8.000000 4.409188 0.390812
    endloop
  endfacet
  facet normal 0.000000 0.587785 -0.809017
    outer loop
      vertex -10.000000 3.725774 -0.105718
      vertex -10.000000 4.409188 0.390812
      vertex -8.000000 3.725774 -0.105718
    endloop
  endfacet
  facet normal 0.000000 0.587785 -0.809017
    outer loop
      vertex -10.000000 4.409188 0.390812
      vertex -8.000000 4.409188 0.390812
      vertex -8.000000 3.725774 -0.105718
    endloop
  endfacet
  facet normal 0.000000 0.309017 -0.951057
    outer loop
      vertex -10.000000 2.922373 -0.366759
      vertex -10.000000 3.725774 -0.105718
      vertex -8.000000 2.922373 -0.366759
    endloop
  endfacet
  facet normal 0.000000 0.309017 -0.951057
    outer loop
      vertex -10.000000 3.725774 -0.105718
      vertex -8.000000 3.725774 -0.105718
      vertex -8.000000 2.922373 -0.366759
    endloop
  endfacet
  facet normal 0.000000 -0.309017 -0.951057
    outer loop
      vertex -10.000000 1.274226 -0.105718
      vertex -10.000000 2.077627 -0.366759
      vertex -8.000000 1.274226 -0.105718
    endloop
  endfacet
  facet normal 0.000000 -0.309017 -0.951057
    outer loop
      vertex -10.000000 2.077627 -0.366759
      vertex -8.000000 2.077627 -0.366759
      vertex -8.000000 1.274226 -0.105718
    endloop
  endfacet
  facet normal 0.000000 -0.587785 -0.809017
    outer loop
      vertex -10.000000 0.590812 0.390812
      vertex -10.000000 1.274226 -0.105718
      vertex -8.000000 0.590812 0.390812
    endloop
  endfacet
  facet normal 0.000000 -0.587785 -0.809017
    outer loop
      vertex -10.000000 1.274226 -0.105718
      vertex -8.000000 1.274226 -0.105718
      vertex -8.000000 0.590812 0.390812
    endloop
  endfacet
  facet normal 0.000000 -0.809017 -0.587785
    outer loop
      vertex -10.000000 0.094282 1.074226
      vertex -10.000000 0.590812 0.390812
      vertex -8.000000 0.094282 1.074226
    endloop
  endfacet
  facet normal 0.000000 -0.809017 -0.587785
    outer loop
      vertex -10.000000 0.590812 0.390812
      vertex -8.000000 0.590812 0.390812
      vertex -8.000000 0.094282 1.074226
    endloop
  endfacet
  facet normal 0.000000 -0.951057 -0.309017
    outer loop
      vertex -10.000000 -0.166759 1.877627
      vertex -10.000000 0.094282 1.074226
      vertex -8.000000 -0.166759 1.877627
    endloop
  endfacet
  facet normal 0.000000 -0.951057 -0.309017
    outer loop
      vertex -10.000000 0.094282 1.074226
      vertex -8.000000 0.094282 1.074226
      vertex -8.000000 -0.166759 1.877627
    endloop
  endfacet
  facet normal 0.000000 -1.000000 0.000000
    outer loop
      vertex -10.000000 -0.166759 2.722373
      vertex -10.000000 -0.166759 1.877627
      vertex -8.000000 -0.166759 2.722373
    endloop
  endfacet
  facet normal 0.000000 -1.000000 0.000000
    outer loop
      vertex -10.000000 -0.166759 1.877627
      vertex -8.000000 -0.166759 1.877627
      vertex -8.000000 -0.166759 2.722373
    endloop
  endfacet
  facet normal 0.000000 -0.951057 0.309017
    outer loop
      vertex -10.000000 0.094282 3.525774
      vertex -10.000000 -0.166759 2.722373
      vertex -8.000000 0.094282 3.525774
    endloop
  endfacet
  facet normal 0.000000 -0.951057 0.309017
    outer loop
      vertex -10.000000 -0.166759 2.722373
      vertex -8.000000 -0.166759 2.722373
      vertex -8.000000 0.094282 3.525774
    endloop
  endfacet
  facet normal 0.000000 -0.809017 0.587785
    outer loop
      vertex -10.000000 0.590812 4.209188
      vertex -10.000000 0.094282 3.525774
      vertex -8.000000 0.590812 4.209188
    endloop
  endfacet
  facet normal 0.000000 -0.809017 0.587785
    outer loop
      vertex -10.000000 0.094282 3.525774
      vertex -8.000000 0.094282 3.525774
      vertex -8.000000 0.590812 4.209188
    endloop
  endfacet
  facet normal 0.000000 -0.587785 0.809017
    outer loop
      vertex -10.000000 1.274226 4.705718
      vertex -10.000000 0.590812 4.209188
      vertex -8.000000 1.274226 4.705718
    endloop
  endfacet
  facet normal 0.000000 -0.587785 0.809017
    outer loop
      vertex -10.000000 0.590812 4.209188
      vertex -8.000000 0.590812 4.209188
      vertex -8.000000 1.274226 4.705718
    endloop
  endfacet
  facet normal 0.000000 -0.309017 0.951057
    outer loop
      vertex -10.000000 2.077627 4.966759
      vertex -10.000000 1.274226 4.705718
      vertex -8.000000 2.077627 4.966759
    endloop
  endfacet
  facet normal 0.000000 -0.309017 0.951057
    outer loop
      vertex -10.000000 1.274226 4.705718
      vertex -8.000000 1.274226 4.705718
      vertex -8.000000 2.077627 4.966759
    endloop
  endfacet
  facet normal 0.000000 0.000000 1.000000
    outer loop
      vertex -10.000000 22.922373 4.966759
      vertex -10.000000 22.077627 4.966759
      vertex -8.000000 22.922373 4.966759
    endloop
  endfacet
  facet normal 0.000000 0.000000 1.000000
    outer loop
      vertex -10.000000 2.922373 4.966759
      vertex -10.000000 2.077627 4.966759
      vertex -8.000000 2.922373 4.966759
    endloop
  endfacet
  facet normal 0.000000 0.000000 1.000000
    outer loop
      vertex -10.000000 22.077627 4.966759
      vertex -8.000000 22.077627 4.966759
      vertex -8.000000 22.922373 4.966759
    endloop
  endfacet
  facet normal 0.000000 0.000000 1.000000
    outer loop
      vertex -10.000000 2.077627 4.966759
      vertex -8.000000 2.077627 4.966759
      vertex -8.000000 2.922373 4.966759
    endloop
  endfacet
  facet normal 0.000000 -0.309017 0.951057
    outer loop
      vertex -10.000000 22.077627 4.966759
      vertex -10.000000 21.274226 4.705718
      vertex -8.000000 22.077627 4.966759
    endloop
  endfacet
  facet normal 0.000000 -0.309017 0.951057
    outer loop
      vertex -10.000000 21.274226 4.705718
      vertex -8.000000 21.274226 4.705718
      vertex -8.000000 22.077627 4.966759
    endloop
  endfacet
  facet normal 0.000000 -0.587785 0.809017
    outer loop
      vertex -10.000000 21.274226 4.705718
      vertex -10.000000 20.590812 4.209188
      vertex -8.000000 21.274226 4.705718
    endloop
  endfacet
  facet normal 0.000000 -0.587785 0.809017
    outer loop
      vertex -10.000000 20.590812 4.209188
      vertex -8.000000 20.590812 4.209188
      vertex -8.000000 21.274226 4.705718
    endloop
  endfacet
  facet normal 0.000000 -0.809017 0.587785
    outer loop
      vertex -10.000000 20.590812 4.209188
      vertex -10.000000 20.094282 3.525774
      vertex -8.000000 20.590812 4.209188
    endloop
  endfacet
  facet normal 0.000000 -0.809017 0.587785
    outer loop
      vertex -10.000000 20.094282 3.525774
      vertex -8.000000 20.094282 3.525774
      vertex -8.000000 20.590812 4.209188
    endloop
  endfacet
  facet normal 0.000000 -0.951057 0.309017
    outer loop
      vertex -10.000000 20.094282 3.525774
      vertex -10.000000 19.833241 2.722373
      vertex -8.000000 20.094282 3.525774
    endloop
  endfacet
  facet normal 0.000000 -0.951057 0.309017
    outer loop
      vertex -10.000000 19.833241 2.722373
      vertex -8.000000 19.833241 2.722373
      vertex -8.000000 20.094282 3.525774
    endloop
  endfacet
  facet normal 0.000000 -1.000000 0.000000
    outer loop
      vertex -10.000000 19.833241 2.722373
      vertex -10.000000 19.833241 1.877627
      vertex -8.000000 19.833241 2.722373
    endloop
  endfacet
  facet normal 0.000000 -1.000000 0.000000
    outer loop
      vertex -10.000000 19.833241 1.877627
      vertex -8.000000 19.833241 1.877627
      vertex -8.000000 19.833241 2.722373
    endloop
  endfacet
  facet normal 0.000000 -0.951057 -0.309017
    outer loop
      vertex -10.000000 19.833241 1.877627
      vertex -10.000000 20.094282 1.074226
      vertex -8.000000 19.833241 1.877627
    endloop
  endfacet
  facet normal 0.000000 -0.951057 -0.309017
    outer loop
      vertex -10.000000 20.094282 1.074226
      vertex -8.000000 20.094282 1.074226
      vertex -8.000000 19.833241 1.877627
    endloop
  endfacet
  facet normal 0.000000 -0.809017 -0.587785
    outer loop
      vertex -10.000000 20.094282 1.074226
      vertex -10.000000 20.590812 0.390812
      vertex -8.000000 20.094282 1.074226
    endloop
  endfacet
  facet normal 0.000000 -0.809017 -0.587785
    outer loop
      vertex -10.000000 20.590812 0.390812
      vertex -8.000000 20.590812 0.390812
      vertex -8.000000 20.094282 1.074226
    endloop
  endfacet
  facet normal 0.000000 -0.587785 -0.809017
    outer loop
      vertex -10.000000 20.590812 0.390812
      vertex -10.000000 21.274226 -0.105718
      vertex -8.000000 20.590812 0.390812
    endloop
  endfacet
  facet normal 0.000000 -0.587785 -0.809017
    outer loop
      vertex -10.000000 21.274226 -0.105718
      vertex -8.000000 21.274226 -0.105718
      vertex -8.000000 20.590812 0.390812
    endloop
  endfacet
  facet normal 0.000000 -0.309017 -0.951057
    outer loop
      vertex -10.000000 21.274226 -0.105718
      vertex -10.000000 22.077627 -0.366759
      vertex -8.000000 21.274226 -0.105718
    endloop
  endfacet
  facet normal 0.000000 -0.309017 -0.951057
    outer loop
      vertex -10.000000 22.077627 -0.366759
      vertex -8.000000 22.077627 -0.366759
      vertex -8.000000 21.274226 -0.105718
    endloop
  endfacet
  facet normal 0.000000 0.000000 -1.000000
    outer loop
      vertex -8.000000 22.077627 -0.366759
      vertex -10.000000 22.922373 -0.366759
      vertex -8.000000 22.922373 -0.366759
    endloop
  endfacet
  facet normal 0.000000 0.000000 -1.000000
    outer loop
      vertex -8.000000 2.077627 -0.366759
      vertex -10.000000 2.922373 -0.366759
      vertex -8.000000 2.922373 -0.366759
    endloop
  endfacet
  facet normal 0.000000 0.000000 -1.000000
    outer loop
      vertex -8.000000 22.077627 -0.366759
      vertex -10.000000 22.077627 -0.366759
      vertex -10.000000 22.922373 -0.366759
    endloop
  endfacet
  facet normal 0.000000 0.000000 -1.000000
    outer loop
      vertex -8.000000 2.077627 -0.366759
      vertex -10.000000 2.077627 -0.366759
      vertex -10.000000 2.922373 -0.366759
    endloop
  endfacet
  facet normal 0.000000 0.309017 -0.951057
    outer loop
      vertex -10.000000 22.922373 -0.366759
      vertex -10.000000 23.725774 -0.105718
      vertex -8.000000 22.922373 -0.366759
    endloop
  endfacet
  facet normal 0.000000 0.309017 -0.951057
    outer loop
      vertex -10.000000 23.725774 -0.105718
      vertex -8.000000 23.725774 -0.105718
      vertex -8.000000 22.922373 -0.366759
    endloop
  endfacet
  facet normal 0.000000 0.587785 -0.809017
    outer loop
      vertex -10.000000 23.725774 -0.105718
      vertex -10.000000 24.409188 0.390812
      vertex -8.000000 23.725774 -0.105718
    endloop
  endfacet
  facet normal 0.000000 0.587785 -0.809017
    outer loop
      vertex -10.000000 24.409188 0.390812
      vertex -8.000000 24.409188 0.390812
      vertex -8.000000 23.725774 -0.105718
    endloop
  endfacet
  facet normal 0.000000 0.809017 -0.587785
    outer loop
      vertex -10.000000 24.409188 0.390812
      vertex -10.000000 24.905718 1.074226
      vertex -8.000000 24.409188 0.390812
    endloop
  endfacet
  facet normal 0.000000 0.809017 -0.587785
    outer loop
      vertex -10.000000 24.905718 1.074226
      vertex -8.000000 24.905718 1.074226
      vertex -8.000000 24.409188 0.390812
    endloop
  endfacet
  facet normal 0.000000 0.951057 -0.309017
    outer loop
      vertex -10.000000 24.905718 1.074226
      vertex -10.000000 25.166759 1.877627
      vertex -8.000000 24.905718 1.074226
    endloop
  endfacet
  facet normal 0.000000 0.951057 -0.309017
    outer loop
      vertex -10.000000 25.166759 1.877627
      vertex -8.000000 25.166759 1.877627
      vertex -8.000000 24.905718 1.074226
    endloop
  endfacet
  facet normal 0.000000 1.000000 0.000000
    outer loop
      vertex -10.000000 25.166759 1.877627
      vertex -10.000000 25.166759 2.722373
      vertex -8.000000 25.166759 1.877627
    endloop
  endfacet
  facet normal 0.000000 1.000000 0.000000
    outer loop
      vertex -10.000000 25.166759 2.722373
      vertex -8.000000 25.166759 2.722373
      vertex -8.000000 25.166759 1.877627
    endloop
  endfacet
  facet normal 0.000000 0.951057 0.309017
    outer loop
      vertex -10.000000 25.166759 2.722373
      vertex -10.000000 24.905718 3.525774
      vertex -8.000000 25.166759 2.722373
    endloop
  endfacet
  facet normal 0.000000 0.951057 0.309017
    outer loop
      vertex -10.000000 24.905718 3.525774
      vertex -8.000000 24.905718 3.525774
      vertex -8.000000 25.166759 2.722373
    endloop
  endfacet
  facet normal 0.000000 0.809017 0.587785
    outer loop
      vertex -10.000000 24.905718 3.525774
      vertex -10.000000 24.409188 4.209188
      vertex -8.000000 24.905718 3.525774
    endloop
  endfacet
  facet normal 0.000000 0.809017 0.587785
    outer loop
      vertex -10.000000 24.409188 4.209188
      vertex -8.000000 24.409188 4.209188
      vertex -8.000000 24.905718 3.525774
    endloop
  endfacet
  facet normal 0.000000 0.587785 0.809017
    outer loop
      vertex -10.000000 24.409188 4.209188
      vertex -10.000000 23.725774 4.705718
      vertex -8.000000 24.409188 4.209188
    endloop
  endfacet
  facet normal 0.000000 0.587785 0.809017
    outer loop
      vertex -10.000000 23.725774 4.705718
      vertex -8.000000 23.725774 4.705718
      vertex -8.000000 24.409188 4.209188
    endloop
  endfacet
  facet normal 0.000000 0.309017 0.951057
    outer loop
      vertex -10.000000 23.725774 4.705718
      vertex -10.000000 22.922373 4.966759
      vertex -8.000000 23.725774 4.705718
    endloop
  endfacet
  facet normal 0.000000 0.309017 0.951057
    outer loop
      vertex -10.000000 22.922373 4.966759
      vertex -8.000000 22.922373 4.966759
      vertex -8.000000 23.725774 4.705718
    endloop
  endfacet
  facet normal -1.000000 0.000000 0.000000
    outer loop
      vertex -10.000000 24.905718 1.074226
      vertex -10.000000 25.166759 2.722373
      vertex -10.000000 25.166759 1.877627
    endloop
  endfacet
  facet normal -1.000000 0.000000 0.000000
    outer loop
      vertex -10.000000 4.905718 1.074226
      vertex -10.000000 5.166759 2.722373
      vertex -10.000000 5.166759 1.877627
    endloop
  endfacet
  facet normal -1.000000 0.000000 0.000000
    outer loop
      vertex -10.000000 24.409188 0.390812
      vertex -10.000000 24.905718 3.525774
      vertex -10.000000 24.905718 1.074226
    endloop
  endfacet
  facet normal -1.000000 0.000000 0.000000
    outer loop
      vertex -10.000000 24.905718 3.525774
      vertex -10.000000 25.166759 2.722373
      vertex -10.000000 24.905718 1.074226
    endloop
  endfacet
  facet normal -1.000000 0.000000 0.000000
    outer loop
      vertex -10.000000 23.725774 -0.105718
      vertex -10.000000 24.409188 4.209188
      vertex -10.000000 24.409188 0.390812
    endloop
  endfacet
  facet normal -1.000000 0.000000 0.000000
    outer loop
      vertex -10.000000 24.409188 4.209188
      vertex -10.000000 24.905718 3.525774
      vertex -10.000000 24.409188 0.390812
    endloop
  endfacet
  facet normal -1.000000 0.000000 0.000000
    outer loop
      vertex -10.000000 22.922373 -0.366759
      vertex -10.000000 23.725774 4.705718
      vertex -10.000000 23.725774 -0.105718
    endloop
  endfacet
  facet normal -1.000000 0.000000 0.000000
    outer loop
      vertex -10.000000 23.725774 4.705718
      vertex -10.000000 24.409188 4.209188
      vertex -10.000000 23.725774 -0.105718
    endloop
  endfacet
  facet normal -1.000000 0.000000 0.000000
    outer loop
      vertex -10.000000 22.077627 -0.366759
      vertex -10.000000 22.922373 4.966759
      vertex -10.000000 22.922373 -0.366759
    endloop
  endfacet
  facet normal -1.000000 0.000000 0.000000
    outer loop
      vertex -10.000000 22.922373 4.966759
      vertex -10.000000 23.725774 4.705718
      vertex -10.000000 22.922373 -0.366759
    endloop
  endfacet
  facet normal -1.000000 0.000000 0.000000
    outer loop
      vertex -10.000000 21.274226 -0.105718
      vertex -10.000000 22.077627 4.966759
      vertex -10.000000 22.077627 -0.366759
    endloop
  endfacet
  facet normal -1.000000 0.000000 0.000000
    outer loop
      vertex -10.000000 22.077627 4.966759
      vertex -10.000000 22.922373 4.966759
      vertex -10.000000 22.077627 -0.366759
    endloop
  endfacet
  facet normal -1.000000 0.000000 0.000000
    outer loop
      vertex -10.000000 20.590812 0.390812
      vertex -10.000000 21.274226 4.705718
      vertex -10.000000 21.274226 -0.105718
    endloop
  endfacet
  facet normal -1.000000 0.000000 0.000000
    outer loop
      vertex -10.000000 21.274226 4.705718
      vertex -10.000000 22.077627 4.966759
      vertex -10.000000 21.274226 -0.105718
    endloop
  endfacet
  facet normal -1.000000 0.000000 0.000000
    outer loop
      vertex -10.000000 20.094282 1.074226
      vertex -10.000000 20.590812 4.209188
      vertex -10.000000 20.590812 0.390812
    endloop
  endfacet
  facet normal -1.000000 0.000000 0.000000
    outer loop
      vertex -10.000000 20.590812 4.209188
      vertex -10.000000 21.274226 4.705718
      vertex -10.000000 20.590812 0.390812
    endloop
  endfacet
  facet normal -1.000000 0.000000 0.000000
    outer loop
      vertex -10.000000 19.833241 1.877627
      vertex -10.000000 20.094282 3.525774
      vertex -10.000000 20.094282 1.074226
    endloop
  endfacet
  facet normal -1.000000 0.000000 0.000000
    outer loop
      vertex -10.000000 20.094282 3.525774
      vertex -10.000000 20.590812 4.209188
      vertex -10.000000 20.094282 1.074226
    endloop
  endfacet
  facet normal -1.000000 0.000000 0.000000
    outer loop
      vertex -10.000000 19.833241 1.877627
      vertex -10.000000 19.833241 2.722373
      vertex -10.000000 20.094282 3.525774
    endloop
  endfacet
  facet normal -1.000000 0.000000 0.000000
    outer loop
      vertex -10.000000 4.409188 0.390812
      vertex -10.000000 4.905718 3.525774
      vertex -10.000000 4.905718 1.074226
    endloop
  endfacet
  facet normal -1.000000 0.000000 0.000000
    outer loop
      vertex -10.000000 4.905718 3.525774
      vertex -10.000000 5.166759 2.722373
      vertex -10.000000 4.905718 1.074226
    endloop
  endfacet
  facet normal -1.000000 0.000000 0.000000
    outer loop
      vertex -10.000000 3.725774 -0.105718
      vertex -10.000000 4.409188 4.209188
      vertex -10.000000 4.409188 0.390812
    endloop
  endfacet
  facet normal -1.000000 0.000000 0.000000
    outer loop
      vertex -10.000000 4.409188 4.209188
      vertex -10.000000 4.905718 3.525774
      vertex -10.000000 4.409188 0.390812
    endloop
  endfacet
  facet normal -1.000000 0.000000 0.000000
    outer loop
      vertex -10.000000 2.922373 -0.366759
      vertex -10.000000 3.725774 4.705718
      vertex -10.000000 3.725774 -0.105718
    endloop
  endfacet
  facet normal -1.000000 0.000000 0.000000
    outer loop
      vertex -10.000000 3.725774 4.705718
      vertex -10.000000 4.409188 4.209188
      vertex -10.000000 3.725774 -0.105718
    endloop
  endfacet
  facet normal -1.000000 0.000000 0.000000
    outer loop
      vertex -10.000000 2.077627 -0.366759
      vertex -10.000000 2.922373 4.966759
      vertex -10.000000 2.922373 -0.366759
    endloop
  endfacet
  facet normal -1.000000 0.000000 0.000000
    outer loop
      vertex -10.000000 2.922373 4.966759
      vertex -10.000000 3.725774 4.705718
      vertex -10.000000 2.922373 -0.366759
    endloop
  endfacet
  facet normal -1.000000 0.000000 0.000000
    outer loop
      vertex -10.000000 1.274226 -0.105718
      vertex -10.000000 2.077627 4.966759
      vertex -10.000000 2.077627 -0.366759
    endloop
  endfacet
  facet normal -1.000000 0.000000 0.000000
    outer loop
      vertex -10.000000 2.077627 4.966759
      vertex -10.000000 2.922373 4.966759
      vertex -10.000000 2.077627 -0.366759
    endloop
  endfacet
  facet normal -1.000000 0.000000 0.000000
    outer loop
      vertex -10.000000 0.590812 0.390812
      vertex -10.000000 1.274226 4.705718
      vertex -10.000000 1.274226 -0.105718
    endloop
  endfacet
  facet normal -1.000000 0.000000 0.000000
    outer loop
      vertex -10.000000 1.274226 4.705718
      vertex -10.000000 2.077627 4.966759
      vertex -10.000000 1.274226 -0.105718
    endloop
  endfacet
  facet normal -1.000000 0.000000 0.000000
    outer loop
      vertex -10.000000 0.094282 1.074226
      vertex -10.000000 0.590812 4.209188
      vertex -10.000000 0.590812 0.390812
    endloop
  endfacet
  facet normal -1.000000 0.000000 0.000000
    outer loop
      vertex -10.000000 0.590812 4.209188
      vertex -10.000000 1.274226 4.705718
      vertex -10.000000 0.590812 0.390812
    endloop
  endfacet
  facet normal -1.000000 0.000000 0.000000
    outer loop
      vertex -10.000000 -0.166759 1.877627
      vertex -10.000000 0.094282 3.525774
      vertex -10.000000 0.094282 1.074226
    endloop
  endfacet
  facet normal -1.000000 0.000000 0.000000
    outer loop
      vertex -10.000000 0.094282 3.525774
      vertex -10.000000 0.590812 4.209188
      vertex -10.000000 0.094282 1.074226
    endloop
  endfacet
  facet normal -1.000000 0.000000 0.000000
    outer loop
      vertex -10.000000 -0.166759 1.877627
      vertex -10.000000 -0.166759 2.722373
      vertex -10.000000 0.094282 3.525774
    endloop
  endfacet
  facet normal 1.000000 -0.000000 0.000000
    outer loop
      vertex -8.000000 24.905718 3.525774
      vertex -8.000000 25.166759 1.877627
      vertex -8.000000 25.166759 2.722373
    endloop
  endfacet
  facet normal 1.000000 -0.000000 0.000000
    outer loop
      vertex -8.000000 4.905718 3.525774
      vertex -8.000000 5.166759 1.877627
      vertex -8.000000 5.166759 2.722373
    endloop
  endfacet
  facet normal 1.000000 -0.000000 0.000000
    outer loop
      vertex -8.000000 24.409188 4.209188
      vertex -8.000000 24.905718 1.074226
      vertex -8.000000 24.905718 3.525774
    endloop
  endfacet
  facet normal 1.000000 -0.000000 0.000000
    outer loop
      vertex -8.000000 24.905718 1.074226
      vertex -8.000000 25.166759 1.877627
      vertex -8.000000 24.905718 3.525774
    endloop
  endfacet
  facet normal 1.000000 -0.000000 0.000000
    outer loop
      vertex -8.000000 23.725774 4.705718
      vertex -8.000000 24.409188 0.390812
      vertex -8.000000 24.409188 4.209188
    endloop
  endfacet
  facet normal 1.000000 -0.000000 0.000000
    outer loop
      vertex -8.000000 24.409188 0.390812
      vertex -8.000000 24.905718 1.074226
      vertex -8.000000 24.409188 4.209188
    endloop
  endfacet
  facet normal 1.000000 -0.000000 0.000000
    outer loop
      vertex -8.000000 22.922373 4.966759
      vertex -8.000000 23.725774 -0.105718
      vertex -8.000000 23.725774 4.705718
    endloop
  endfacet
  facet normal 1.000000 -0.000000 0.000000
    outer loop
      vertex -8.000000 23.725774 -0.105718
      vertex -8.000000 24.409188 0.390812
      vertex -8.000000 23.725774 4.705718
    endloop
  endfacet
  facet normal 1.000000 -0.000000 0.000000
    outer loop
      vertex -8.000000 22.077627 4.966759
      vertex -8.000000 22.922373 -0.366759
      vertex -8.000000 22.922373 4.966759
    endloop
  endfacet
  facet normal 1.000000 -0.000000 0.000000
    outer loop
      vertex -8.000000 22.922373 -0.366759
      vertex -8.000000 23.725774 -0.105718
      vertex -8.000000 22.922373 4.966759
    endloop
  endfacet
  facet normal 1.000000 -0.000000 0.000000
    outer loop
      vertex -8.000000 21.274226 4.705718
      vertex -8.000000 22.077627 -0.366759
      vertex -8.000000 22.077627 4.966759
    endloop
  endfacet
  facet normal 1.000000 -0.000000 0.000000
    outer loop
      vertex -8.000000 22.077627 -0.366759
      vertex -8.000000 22.922373 -0.366759
      vertex -8.000000 22.077627 4.966759
    endloop
  endfacet
  facet normal 1.000000 -0.000000 0.000000
    outer loop
      vertex -8.000000 20.590812 4.209188
      vertex -8.000000 21.274226 -0.105718
      vertex -8.000000 21.274226 4.705718
    endloop
  endfacet
  facet normal 1.000000 -0.000000 0.000000
    outer loop
      vertex -8.000000 21.274226 -0.105718
      vertex -8.000000 22.077627 -0.366759
      vertex -8.000000 21.274226 4.705718
    endloop
  endfacet
  facet normal 1.000000 -0.000000 0.000000
    outer loop
      vertex -8.000000 20.094282 3.525774
      vertex -8.000000 20.590812 0.390812
      vertex -8.000000 20.590812 4.209188
    endloop
  endfacet
  facet normal 1.000000 -0.000000 0.000000
    outer loop
      vertex -8.000000 20.590812 0.390812
      vertex -8.000000 21.274226 -0.105718
      vertex -8.000000 20.590812 4.209188
    endloop
  endfacet
  facet normal 1.000000 -0.000000 0.000000
    outer loop
      vertex -8.000000 19.833241 2.722373
      vertex -8.000000 20.094282 1.074226
      vertex -8.000000 20.094282 3.525774
    endloop
  endfacet
  facet normal 1.000000 -0.000000 0.000000
    outer loop
      vertex -8.000000 20.094282 1.074226
      vertex -8.000000 20.590812 0.390812
      vertex -8.000000 20.094282 3.525774
    endloop
  endfacet
  facet normal 1.000000 -0.000000 0.000000
    outer loop
      vertex -8.000000 19.833241 2.722373
      vertex -8.000000 19.833241 1.877627
      vertex -8.000000 20.094282 1.074226
    endloop
  endfacet
  facet normal 1.000000 -0.000000 0.000000
    outer loop
      vertex -8.000000 4.409188 4.209188
      vertex -8.000000 4.905718 1.074226
      vertex -8.000000 4.905718 3.525774
    endloop
  endfacet
  facet normal 1.000000 -0.000000 0.000000
    outer loop
      vertex -8.000000 4.905718 1.074226
      vertex -8.000000 5.166759 1.877627
      vertex -8.000000 4.905718 3.525774
    endloop
  endfacet
  facet normal 1.000000 -0.000000 0.000000
    outer loop
      vertex -8.000000 3.725774 4.705718
      vertex -8.000000 4.409188 0.390812
      vertex -8.000000 4.409188 4.209188
    endloop
  endfacet
  facet normal 1.000000 -0.000000 0.000000
    outer loop
      vertex -8.000000 4.409188 0.390812
      vertex -8.000000 4.905718 1.074226
      vertex -8.000000 4.409188 4.209188
    endloop
  endfacet
  facet normal 1.000000 -0.000000 0.000000
    outer loop
      vertex -8.000000 2.922373 4.966759
      vertex -8.000000 3.725774 -0.105718
      vertex -8.000000 3.725774 4.705718
    endloop
  endfacet
  facet normal 1.000000 -0.000000 0.000000
    outer loop
      vertex -8.000000 3.725774 -0.105718
      vertex -8.000000 4.409188 0.390812
      vertex -8.000000 3.725774 4.705718
    endloop
  endfacet
  facet normal 1.000000 -0.000000 0.000000
    outer loop
      vertex -8.000000 2.077627 4.966759
      vertex -8.000000 2.922373 -0.366759
      vertex -8.000000 2.922373 4.966759
    endloop
  endfacet
  facet normal 1.000000 -0.000000 0.000000
    outer loop
      vertex -8.000000 2.922373 -0.366759
      vertex -8.000000 3.725774 -0.105718
      vertex -8.000000 2.922373 4.966759
    endloop
  endfacet
  facet normal 1.000000 -0.000000 0.000000
    outer loop
      vertex -8.000000 1.274226 4.705718
      vertex -8.000000 2.077627 -0.366759
      vertex -8.000000 2.077627 4.966759
    endloop
  endfacet
  facet normal 1.000000 -0.000000 0.000000
    outer loop
      vertex -8.000000 2.077627 -0.366759
      vertex -8.000000 2.922373 -0.366759
      vertex -8.000000 2.077627 4.966759
    endloop
  endfacet
  facet normal 1.000000 -0.000000 0.000000
    outer loop
      vertex -8.000000 0.590812 4.209188
      vertex -8.000000 1.274226 -0.105718
      vertex -8.000000 1.274226 4.705718
    endloop
  endfacet
  facet normal 1.000000 -0.000000 0.000000
    outer loop
      vertex -8.000000 1.274226 -0.105718
      vertex -8.000000 2.077627 -0.366759
      vertex -8.000000 1.274226 4.705718
    endloop
  endfacet
  facet normal 1.000000 -0.000000 0.000000
    outer loop
      vertex -8.000000 0.094282 3.525774
      vertex -8.000000 0.590812 0.390812
      vertex -8.000000 0.590812 4.209188
    endloop
  endfacet
  facet normal 1.000000 -0.000000 0.000000
    outer loop
      vertex -8.000000 0.590812 0.390812
      vertex -8.000000 1.274226 -0.105718
      vertex -8.000000 0.590812 4.209188
    endloop
  endfacet
  facet normal 1.000000 -0.000000 0.000000
    outer loop
      vertex -8.000000 -0.166759 2.722373
      vertex -8.000000 0.094282 1.074226
      vertex -8.000000 0.094282 3.525774
    endloop
  endfacet
  facet normal 1.000000 -0.000000 0.000000
    outer loop
      vertex -8.000000 0.094282 1.074226
      vertex -8.000000 0.590812 0.390812
      vertex -8.000000 0.094282 3.525774
    endloop
  endfacet
  facet normal 1.000000 -0.000000 0.000000
    outer loop
      vertex -8.000000 -0.166759 2.722373
      vertex -8.000000 -0.166759 1.877627
      vertex -8.000000 0.094282 1.074226
    endloop
  endfacet
endsolid chip.c/Cmetal.c/Cs.r
solid chip.c/Cmetal.c/Cm.r
  facet normal -0.000000 0.913812 0.406138
    outer loop
      vertex -8.850000 20.000000 12.500000
      vertex -8.000000 22.000000 8.000000
      vertex -8.550000 22.000000 8.000000
    endloop
  endfacet
  facet normal -0.000000 0.913812 0.406138
    outer loop
      vertex -8.850000 20.000000 12.500000
      vertex -8.000000 20.000000 12.500000
      vertex -8.000000 22.000000 8.000000
    endloop
  endfacet
  facet normal -0.000000 -0.832050 0.554700
    outer loop
      vertex -8.550000 2.000000 8.000000
      vertex -8.000000 5.000000 12.500000
      vertex -8.850000 5.000000 12.500000
    endloop
  endfacet
  facet normal -0.000000 -0.832050 0.554700
    outer loop
      vertex -8.550000 2.000000 8.000000
      vertex -8.000000 2.000000 8.000000
      vertex -8.000000 5.000000 12.500000
    endloop
  endfacet
  facet normal -0.000000 -0.000000 1.000000
    outer loop
      vertex -8.850000 5.000000 12.500000
      vertex -8.000000 20.000000 12.500000
      vertex -8.850000 20.000000 12.500000
    endloop
  endfacet
  facet normal -0.000000 -0.000000 1.000000
    outer loop
      vertex -8.850000 5.000000 12.500000
      vertex -8.000000 5.000000 12.500000
      vertex -8.000000 20.000000 12.500000
    endloop
  endfacet
  facet normal -0.000000 -0.000000 -1.000000
    outer loop
      vertex -8.000000 20.000000 -0.500000
      vertex -8.000000 5.000000 -0.500000
      vertex -8.350000 20.000000 -0.500000
    endloop
  endfacet
  facet normal -0.000000 -0.000000 -1.000000
    outer loop
      vertex -8.000000 5.000000 -0.500000
      vertex -8.350000 5.000000 -0.500000
      vertex -8.350000 20.000000 -0.500000
    endloop
  endfacet
  facet normal -0.000000 -1.000000 -0.000000
    outer loop
      vertex -8.350000 5.000000 -0.500000
      vertex -8.000000 5.000000 0.000000
      vertex -8.350000 5.000000 0.000000
    endloop
  endfacet
  facet normal -0.000000 -1.000000 -0.000000
    outer loop
      vertex -8.350000 5.000000 -0.500000
      vertex -8.000000 5.000000 -0.500000
      vertex -8.000000 5.000000 0.000000
    endloop
  endfacet
  facet normal -0.000000 1.000000 -0.000000
    outer loop
      vertex -8.350000 20.000000 0.000000
      vertex -8.000000 20.000000 -0.500000
      vertex -8.350000 20.000000 -0.500000
    endloop
  endfacet
  facet normal -0.000000 1.000000 -0.000000
    outer loop
      vertex -8.350000 20.000000 0.000000
      vertex -8.000000 20.000000 0.000000
      vertex -8.000000 20.000000 -0.500000
    endloop
  endfacet
  facet normal -0.997785 -0.000000 -0.066519
    outer loop
      vertex -8.350000 0.000000 5.000000
      vertex -8.550000 25.000000 8.000000
      vertex -8.350000 25.000000 5.000000
    endloop
  endfacet
  facet normal -0.997785 -0.000000 -0.066519
    outer loop
      vertex -8.350000 0.000000 5.000000
      vertex -8.550000 0.000000 8.000000
      vertex -8.550000 2.000000 8.000000
    endloop
  endfacet
  facet normal -0.997785 -0.000000 -0.066519
    outer loop
      vertex -8.550000 2.000000 8.000000
      vertex -8.850000 5.000000 12.500000
      vertex -8.850000 20.000000 12.500000
    endloop
  endfacet
  facet normal -0.997785 -0.000000 -0.066519
    outer loop
      vertex -8.350000 0.000000 5.000000
      vertex -8.550000 2.000000 8.000000
      vertex -8.850000 20.000000 12.500000
    endloop
  endfacet
  facet normal -0.997785 -0.000000 -0.066519
    outer loop
      vertex -8.350000 0.000000 5.000000
      vertex -8.850000 20.000000 12.500000
      vertex -8.550000 22.000000 8.000000
    endloop
  endfacet
  facet normal -0.997785 -0.000000 -0.066519
    outer loop
      vertex -8.350000 0.000000 5.000000
      vertex -8.550000 22.000000 8.000000
      vertex -8.550000 25.000000 8.000000
    endloop
  endfacet
  facet normal 0.000000 0.000000 1.000000
    outer loop
      vertex -8.550000 2.000000 8.000000
      vertex -8.550000 0.000000 8.000000
      vertex -8.000000 2.000000 8.000000
    endloop
  endfacet
  facet normal 0.000000 0.000000 1.000000
    outer loop
      vertex -8.550000 22.000000 8.000000
      vertex -8.000000 25.000000 8.000000
      vertex -8.550000 25.000000 8.000000
    endloop
  endfacet
  facet normal 0.000000 0.000000 1.000000
    outer loop
      vertex -8.550000 22.000000 8.000000
      vertex -8.000000 22.000000 8.000000
      vertex -8.000000 25.000000 8.000000
    endloop
  endfacet
  facet normal 0.000000 0.000000 1.000000
    outer loop
      vertex -8.550000 0.000000 8.000000
      vertex -8.000000 0.000000 8.000000
      vertex -8.000000 2.000000 8.000000
    endloop
  endfacet
  facet normal 0.000000 0.000000 -1.000000
    outer loop
      vertex -8.000000 25.000000 0.000000
      vertex -8.000000 20.000000 0.000000
      vertex -8.350000 25.000000 0.000000
    endloop
  endfacet
  facet normal 0.000000 0.000000 -1.000000
    outer loop
      vertex -8.000000 5.000000 0.000000
      vertex -8.000000 0.000000 0.000000
      vertex -8.350000 5.000000 0.000000
    endloop
  endfacet
  facet normal 0.000000 0.000000 -1.000000
    outer loop
      vertex -8.000000 20.000000 0.000000
      vertex -8.350000 20.000000 0.000000
      vertex -8.350000 25.000000 0.000000
    endloop
  endfacet
  facet normal 0.000000 0.000000 -1.000000
    outer loop
      vertex -8.000000 0.000000 0.000000
      vertex -8.350000 0.000000 0.000000
      vertex -8.350000 5.000000 0.000000
    endloop
  endfacet
  facet normal 1.000000 0.000000 -0.000000
    outer loop
      vertex -8.000000 25.000000 8.000000
      vertex -8.000000 22.000000 8.000000
      vertex -8.000000 25.000000 0.000000
    endloop
  endfacet
  facet normal 1.000000 0.000000 -0.000000
    outer loop
      vertex -8.000000 5.000000 12.500000
      vertex -8.000000 20.000000 0.000000
      vertex -8.000000 20.000000 12.500000
    endloop
  endfacet
  facet normal 1.000000 0.000000 -0.000000
    outer loop
      vertex -8.000000 20.000000 0.000000
      vertex -8.000000 25.000000 0.000000
      vertex -8.000000 20.000000 12.500000
    endloop
  endfacet
  facet normal 1.000000 0.000000 -0.000000
    outer loop
      vertex -8.000000 2.000000 8.000000
      vertex -8.000000 5.000000 0.000000
      vertex -8.000000 5.000000 12.500000
    endloop
  endfacet
  facet normal 1.000000 0.000000 -0.000000
    outer loop
      vertex -8.000000 20.000000 -0.500000
      vertex -8.000000 5.000000 0.000000
      vertex -8.000000 5.000000 -0.500000
    endloop
  endfacet
  facet normal 1.000000 0.000000 -0.000000
    outer loop
      vertex -8.000000 5.000000 0.000000
      vertex -8.000000 0.000000 8.000000
      vertex -8.000000 0.000000 0.000000
    endloop
  endfacet
  facet normal 1.000000 0.000000 -0.000000
    outer loop
      vertex -8.000000 5.000000 12.500000
      vertex -8.000000 20.000000 -0.500000
      vertex -8.000000 20.000000 0.000000
    endloop
  endfacet
  facet normal 1.000000 0.000000 -0.000000
    outer loop
      vertex -8.000000 25.000000 0.000000
      vertex -8.000000 22.000000 8.000000
      vertex -8.000000 20.000000 12.500000
    endloop
  endfacet
  facet normal 1.000000 0.000000 -0.000000
    outer loop
      vertex -8.000000 20.000000 -0.500000
      vertex -8.000000 5.000000 12.500000
      vertex -8.000000 5.000000 0.000000
    endloop
  endfacet
  facet normal 1.000000 0.000000 -0.000000
    outer loop
      vertex -8.000000 5.000000 0.000000
      vertex -8.000000 2.000000 8.000000
      vertex -8.000000 0.000000 8.000000
    endloop
  endfacet
  facet normal -1.000000 -0.000000 -0.000000
    outer loop
      vertex -8.350000 20.000000 0.000000
      vertex -8.350000 25.000000 5.000000
      vertex -8.350000 25.000000 0.000000
    endloop
  endfacet
  facet normal -1.000000 -0.000000 -0.000000
    outer loop
      vertex -8.350000 5.000000 -0.500000
      vertex -8.350000 20.000000 0.000000
      vertex -8.350000 20.000000 -0.500000
    endloop
  endfacet
  facet normal -1.000000 -0.000000 -0.000000
    outer loop
      vertex -8.350000 25.000000 5.000000
      vertex -8.350000 0.000000 0.000000
      vertex -8.350000 0.000000 5.000000
    endloop
  endfacet
  facet normal -1.000000 -0.000000 -0.000000
    outer loop
      vertex -8.350000 25.000000 5.000000
      vertex -8.350000 20.000000 0.000000
      vertex -8.350000 5.000000 -0.500000
    endloop
  endfacet
  facet normal -1.000000 -0.000000 -0.000000
    outer loop
      vertex -8.350000 25.000000 5.000000
      vertex -8.350000 5.000000 -0.500000
      vertex -8.350000 5.000000 0.000000
    endloop
  endfacet
  facet normal -1.000000 -0.000000 -0.000000
    outer loop
      vertex -8.350000 25.000000 5.000000
      vertex -8.350000 5.000000 0.000000
      vertex -8.350000 0.000000 0.000000
    endloop
  endfacet
  facet normal -0.000000 -1.000000 -0.000000
    outer loop
      vertex -8.350000 0.000000 5.000000
      vertex -8.000000 0.000000 8.000000
      vertex -8.550000 0.000000 8.000000
    endloop
  endfacet
  facet normal -0.000000 -1.000000 -0.000000
    outer loop
      vertex -8.000000 0.000000 8.000000
      vertex -8.350000 0.000000 0.000000
      vertex -8.000000 0.000000 0.000000
    endloop
  endfacet
  facet normal -0.000000 -1.000000 -0.000000
    outer loop
      vertex -8.000000 0.000000 8.000000
      vertex -8.350000 0.000000 5.000000
      vertex -8.350000 0.000000 0.000000
    endloop
  endfacet
  facet normal -0.000000 1.000000 -0.000000
    outer loop
      vertex -8.350000 25.000000 5.000000
      vertex -8.000000 25.000000 0.000000
      vertex -8.350000 25.000000 0.000000
    endloop
  endfacet
  facet normal -0.000000 1.000000 -0.000000
    outer loop
      vertex -8.000000 25.000000 0.000000
      vertex -8.550000 25.000000 8.000000
      vertex -8.000000 25.000000 8.000000
    endloop
  endfacet
  facet normal -0.000000 1.000000 -0.000000
    outer loop
      vertex -8.000000 25.000000 0.000000
      vertex -8.350000 25.000000 5.000000
      vertex -8.550000 25.000000 8.000000
    endloop
  endfacet
endsolid chip.c/Cmetal.c/Cm.r
solid chip.c/Cglass.c/Cg.r
  facet normal 1.000000 0.000000 -0.000000
    outer loop
      vertex -3.800000 20.500000 0.000000
      vertex -3.800000 4.500000 0.000000
      vertex -3.800000 20.500000 -2.200000
    endloop
  endfacet
  facet normal 1.000000 0.000000 -0.000000
    outer loop
      vertex -3.800000 4.500000 0.000000
      vertex -3.800000 4.500000 -2.200000
      vertex -3.800000 20.500000 -2.200000
    endloop
  endfacet
  facet normal -0.000000 -0.000000 -1.000000
    outer loop
      vertex -3.800000 20.500000 -2.200000
      vertex -3.800000 4.500000 -2.200000
      vertex -5.800000 20.500000 -2.200000
    endloop
  endfacet
  facet normal -0.000000 -0.000000 -1.000000
    outer loop
      vertex -3.800000 4.500000 -2.200000
      vertex -5.800000 4.500000 -2.200000
      vertex -5.800000 20.500000 -2.200000
    endloop
  endfacet
  facet normal -0.000000 -0.000000 1.000000
    outer loop
      vertex -8.000000 4.500000 0.000000
      vertex -3.800000 20.500000 0.000000
      vertex -8.000000 20.500000 0.000000
    endloop
  endfacet
  facet normal -0.000000 -0.000000 1.000000
    outer loop
      vertex -8.000000 4.500000 0.000000
      vertex -3.800000 4.500000 0.000000
      vertex -3.800000 20.500000 0.000000
    endloop
  endfacet
  facet normal -0.000000 -0.000000 -1.000000
    outer loop
      vertex -5.800000 20.500000 -40.500000
      vertex -5.800000 4.500000 -40.500000
      vertex -8.000000 20.500000 -40.500000
    endloop
  endfacet
  facet normal -0.000000 -0.000000 -1.000000
    outer loop
      vertex -5.800000 4.500000 -40.500000
      vertex -8.000000 4.500000 -40.500000
      vertex -8.000000 20.500000 -40.500000
    endloop
  endfacet
  facet normal 1.000000 0.000000 0.000000
    outer loop
      vertex -5.800000 20.500000 -2.200000
      vertex -5.800000 4.500000 -2.200000
      vertex -5.800000 20.500000 -40.500000
    endloop
  endfacet
  facet normal 1.000000 0.000000 0.000000
    outer loop
      vertex -5.800000 4.500000 -2.200000
      vertex -5.800000 4.500000 -40.500000
      vertex -5.800000 20.500000 -40.500000
    endloop
  endfacet
  facet normal -1.000000 -0.000000 -0.000000
    outer loop
      vertex -8.000000 4.500000 -40.500000
      vertex -8.000000 20.500000 0.000000
      vertex -8.000000 20.500000 -40.500000
    endloop
  endfacet
  facet normal -1.000000 -0.000000 -0.000000
    outer loop
      vertex -8.000000 4.500000 -40.500000
      vertex -8.000000 4.500000 0.000000
      vertex -8.000000 20.500000 0.000000
    endloop
  endfacet
  facet normal -0.000000 -1.000000 -0.000000
    outer loop
      vertex -8.000000 4.500000 -40.500000
      vertex -5.800000 4.500000 -2.200000
      vertex -8.000000 4.500000 0.000000
    endloop
  endfacet
  facet normal -0.000000 -1.000000 -0.000000
    outer loop
      vertex -5.800000 4.500000 -2.200000
      vertex -3.800000 4.500000 -2.200000
      vertex -3.800000 4.500000 0.000000
    endloop
  endfacet
  facet normal -0.000000 -1.000000 -0.000000
    outer loop
      vertex -8.000000 4.500000 -40.500000
      vertex -5.800000 4.500000 -40.500000
      vertex -5.800000 4.500000 -2.200000
    endloop
  endfacet
  facet normal -0.000000 -1.000000 -0.000000
    outer loop
      vertex -5.800000 4.500000 -2.200000
      vertex -3.800000 4.500000 0.000000
      vertex -8.000000 4.500000 0.000000
    endloop
  endfacet
  facet normal -0.000000 1.000000 -0.000000
    outer loop
      vertex -8.000000 20.500000 0.000000
      vertex -5.800000 20.500000 -40.500000
      vertex -8.000000 20.500000 -40.500000
    endloop
  endfacet
  facet normal -0.000000 1.000000 -0.000000
    outer loop
      vertex -8.000000 20.500000 0.000000
      vertex -3.800000 20.500000 0.000000
      vertex -3.800000 20.500000 -2.200000
    endloop
  endfacet
  facet normal -0.000000 1.000000 -0.000000
    outer loop
      vertex -8.000000 20.500000 0.000000
      vertex -3.800000 20.500000 -2.200000
      vertex -5.800000 20.500000 -2.200000
    endloop
  endfacet
  facet normal -0.000000 1.000000 -0.000000
    outer loop
      vertex -8.000000 20.500000 0.000000
      vertex -5.800000 20.500000 -2.200000
      vertex -5.800000 20.500000 -40.500000
    endloop
  endfacet
endsolid chip.c/Cglass.c/Cg.r
